# xmcd
#
# Track frame offsets:
#	150
#	19338
#	33438
#	48813
#	63963
#	81201
#	96726
#	113665
#	129415
#	145240
#	164428
#	178528
#	194353
#	209503
#	226741
#	242266
#	259205
#	274955
#
# Disc length: 3877
#
# Revision: 2
# Processed by: cddbd v1.5.2PL0 Copyright (c) Steve Scherf et al.
# Submitted via: kJams Pro (development) 1.0patch49.33
#
DISCID=fc0f2312
DTITLE=Various Artist - PHM0105
DYEAR=2001
DGENRE=Karaoke
TTITLE0=George Strait - If You Can Do Anything Else
TTITLE1=Dixie Chicks - If I Fall You're Going Down With Me
TTITLE2=Brooks and Dunn - Ain't Nothing 'Bout You
TTITLE3=Leann Rimes - But I Do Love You
TTITLE4=Phil Vassar - Rose Bouquet
TTITLE5=Mark McQuinn - Mrs. Steven Rudy
TTITLE6=Montgomery Gentry - She Couldn't Change Me
TTITLE7=Collin Raye - You Still Take Me There
TTITLE8=Tracy Byrd⁄Mark Chesnutt - A Good Way To Get On My Bad Side
TTITLE9=George Strait - If You Can Do Anything Else (Vocal)
TTITLE10=Dixie Chicks - If I Fall You're Going Down With Me (Vocal)
TTITLE11=Brooks and Dunn - Ain't Nothing 'Bout You (Vocal)
TTITLE12=Leann Rimes - But I Do Love You (Vocal)
TTITLE13=Phil Vassar - Rose Bouquet (Vocal)
TTITLE14=Mark McQuinn - Mrs. Steven Rudy (Vocal)
TTITLE15=Montgomery Gentry - She Couldn't Change Me (Vocal)
TTITLE16=Collin Raye - You Still Take Me There (Vocal)
TTITLE17=Tracy Byrd⁄Mark Chesnutt - A Good Way To Get On My Bad Side (Vocal)
EXTD=
EXTT0=
EXTT1=
EXTT2=
EXTT3=
EXTT4=
EXTT5=
EXTT6=
EXTT7=
EXTT8=
EXTT9=
EXTT10=
EXTT11=
EXTT12=
EXTT13=
EXTT14=
EXTT15=
EXTT16=
EXTT17=
PLAYORDER=
